<svg width="25" height="24" viewBox="0 0 25 24" fill="none" xmlns="http://www.w3.org/2000/svg">
<path fill-rule="evenodd" clip-rule="evenodd" d="M5.62847 4.24458C5.38439 4.0005 4.98866 4.0005 4.74458 4.24458C4.5005 4.48866 4.5005 4.88439 4.74458 5.12847L11.6469 12.0308L4.74458 18.9331C4.5005 19.1772 4.5005 19.5729 4.74458 19.817C4.98866 20.0611 5.38439 20.0611 5.62847 19.817L12.5308 12.9147L19.4331 19.817C19.6772 20.0611 20.0729 20.0611 20.317 19.817C20.5611 19.5729 20.5611 19.1772 20.317 18.9331L13.4147 12.0308L20.317 5.12847C20.5611 4.88439 20.5611 4.48866 20.317 4.24458C20.0729 4.0005 19.6772 4.0005 19.4331 4.24458L12.5308 11.1469L5.62847 4.24458Z" fill="#333333"/>
</svg>
